<?xml version="1.0" encoding="utf-8"?>
<!-- Generator: Adobe Illustrator 15.1.0, SVG Export Plug-In . SVG Version: 6.00 Build 0)  -->
<!DOCTYPE svg PUBLIC "-//W3C//DTD SVG 1.1//EN" "http://www.w3.org/Graphics/SVG/1.1/DTD/svg11.dtd">
<svg version="1.1" id="Ebene_1" xmlns="http://www.w3.org/2000/svg" xmlns:xlink="http://www.w3.org/1999/xlink" x="0px" y="0px"
	 width="32px" height="32px" viewBox="0 0 32 32" enable-background="new 0 0 32 32" xml:space="preserve">
<g>
	<g>
		<path fill="#666666" d="M7.166,12.521c-0.313,0-0.572-0.1-0.775-0.301c-0.203-0.201-0.354-0.561-0.45-1.08l-2.457,0.342
			c0.161,0.58,0.392,1.06,0.69,1.442c0.3,0.384,0.682,0.675,1.146,0.872c0.465,0.198,1.1,0.298,1.905,0.298
			c0.825,0,1.491-0.134,1.998-0.403c0.507-0.268,0.896-0.649,1.165-1.146s0.404-1.016,0.404-1.557c0-0.432-0.082-0.803-0.244-1.113
			c-0.164-0.311-0.393-0.561-0.686-0.751C9.683,9.004,9.42,8.899,9.078,8.812c0.424-0.244,0.739-0.529,0.948-0.855
			c0.209-0.325,0.313-0.688,0.313-1.09c0-0.686-0.258-1.254-0.772-1.706c-0.514-0.452-1.35-0.68-2.505-0.68
			c-1.006,0-1.784,0.207-2.333,0.621s-0.92,1.01-1.114,1.789l2.324,0.437c0.065-0.461,0.188-0.783,0.37-0.968
			C6.49,6.176,6.725,6.085,7.015,6.085c0.28,0,0.503,0.085,0.666,0.255C7.84,6.509,7.922,6.735,7.922,7.019
			c0,0.297-0.108,0.551-0.323,0.768C7.383,8.001,7.114,8.108,6.793,8.108c-0.076,0-0.184-0.01-0.32-0.031L6.347,9.922
			C6.685,9.821,6.95,9.771,7.143,9.771c0.361,0,0.648,0.119,0.859,0.354c0.213,0.235,0.317,0.569,0.317,1.001
			c0,0.423-0.108,0.762-0.329,1.016C7.771,12.394,7.496,12.521,7.166,12.521z"/>
		<path fill="#666666" d="M13.574,13.618c0.535,0.316,1.246,0.476,2.131,0.476c0.736,0,1.35-0.13,1.838-0.39
			c0.486-0.26,0.871-0.645,1.146-1.151c0.272-0.506,0.412-1.067,0.412-1.68c0-0.909-0.271-1.659-0.815-2.251
			c-0.546-0.592-1.213-0.889-2-0.889c-0.406,0-0.766,0.076-1.076,0.226c-0.31,0.149-0.611,0.381-0.904,0.694
			C14.381,7.656,14.5,7.005,14.66,6.7c0.223-0.424,0.532-0.635,0.93-0.635c0.222,0,0.408,0.074,0.559,0.223s0.259,0.402,0.323,0.761
			l2.444-0.317c-0.143-0.498-0.35-0.914-0.619-1.244c-0.27-0.328-0.607-0.579-1.018-0.75c-0.406-0.172-0.964-0.258-1.668-0.258
			c-1.189,0-2.122,0.391-2.794,1.17c-0.672,0.781-1.008,2.01-1.008,3.688c0,1.146,0.16,2.066,0.479,2.762
			C12.611,12.795,13.039,13.301,13.574,13.618z M14.737,9.731c0.231-0.267,0.519-0.399,0.86-0.399c0.334,0,0.613,0.138,0.84,0.412
			c0.225,0.274,0.338,0.675,0.338,1.198c0,0.512-0.109,0.896-0.326,1.154c-0.218,0.258-0.486,0.387-0.809,0.387
			c-0.35,0-0.646-0.143-0.889-0.428c-0.24-0.285-0.361-0.68-0.361-1.183C14.391,10.378,14.506,9.998,14.737,9.731z"/>
		<path fill="#666666" d="M20.723,12.622c0.293,0.482,0.67,0.848,1.129,1.097c0.459,0.25,1.062,0.375,1.807,0.375
			c1.326,0,2.265-0.391,2.808-1.173c0.543-0.781,0.812-2.016,0.812-3.703c0-0.752-0.082-1.475-0.244-2.168
			c-0.088-0.363-0.196-0.682-0.338-0.955c-0.139-0.273-0.325-0.533-0.567-0.779c-0.241-0.248-0.554-0.448-0.938-0.603
			c-0.383-0.153-0.871-0.231-1.467-0.231c-1.24,0-2.162,0.354-2.77,1.06c-0.604,0.706-0.908,1.942-0.908,3.709
			c0,0.718,0.061,1.374,0.18,1.968C20.342,11.812,20.508,12.28,20.723,12.622z M22.756,6.849C22.938,6.416,23.232,6.2,23.639,6.2
			c0.396,0,0.695,0.213,0.896,0.638c0.197,0.426,0.299,1.254,0.299,2.488c0,0.841-0.043,1.461-0.129,1.857
			c-0.088,0.397-0.223,0.688-0.404,0.873c-0.184,0.184-0.396,0.275-0.646,0.275c-0.379,0-0.668-0.217-0.864-0.65
			c-0.199-0.433-0.301-1.24-0.301-2.425C22.484,8.085,22.576,7.283,22.756,6.849z"/>
		<path fill="#666666" d="M15.864,16.01c5.192,0,9.479,1.41,10.179,3.241c0.725-0.033,1.461-0.058,2.223-0.058
			c0.779,0,1.541,0.021,2.281,0.06c-1.074-2.293-7.229-4.05-14.683-4.05C7.655,15.203,1,17.333,1,19.961
			c0,2.465,5.84,4.491,13.33,4.734l-1.523,2.16l14.354-2.77l-10.447-2.771l-1.558,2.209c-5.351-0.133-9.582-1.76-9.582-3.752
			C5.574,17.691,10.182,16.01,15.864,16.01z"/>
	</g>
</g>
</svg>
