{
    "asset" : {
        "generator" : "Khronos glTF Blender I/O v1.3.48",
        "version" : "2.0"
    },
    "scene" : 0,
    "scenes" : [
        {
            "name" : "Scene",
            "nodes" : [
                0
            ]
        }
    ],
    "nodes" : [
        {
            "mesh" : 0,
            "name" : "zy1",
            "rotation" : [
                0.7071068286895752,
                0,
                0,
                0.7071067094802856
            ]
        }
    ],
    "materials" : [
        {
            "doubleSided" : true,
            "emissiveFactor" : [
                0,
                0,
                0
            ],
            "name" : "p1",
            "pbrMetallicRoughness" : {
                "baseColorTexture" : {
                    "index" : 0,
                    "texCoord" : 0
                },
                "metallicFactor" : 0,
                "roughnessFactor" : 0.8945907354354858
            }
        },
        {
            "doubleSided" : true,
            "emissiveFactor" : [
                0,
                0,
                0
            ],
            "name" : "z2",
            "pbrMetallicRoughness" : {
                "baseColorTexture" : {
                    "index" : 1,
                    "texCoord" : 0
                },
                "metallicFactor" : 0,
                "roughnessFactor" : 0.8945907354354858
            }
        },
        {
            "doubleSided" : true,
            "emissiveFactor" : [
                0,
                0,
                0
            ],
            "name" : "z3",
            "pbrMetallicRoughness" : {
                "baseColorTexture" : {
                    "index" : 2,
                    "texCoord" : 0
                },
                "metallicFactor" : 0,
                "roughnessFactor" : 0.8945907354354858
            }
        },
        {
            "doubleSided" : true,
            "emissiveFactor" : [
                0,
                0,
                0
            ],
            "name" : "z1",
            "pbrMetallicRoughness" : {
                "baseColorTexture" : {
                    "index" : 3,
                    "texCoord" : 0
                },
                "metallicFactor" : 0,
                "roughnessFactor" : 0.8945907354354858
            }
        },
        {
            "doubleSided" : true,
            "emissiveFactor" : [
                0,
                0,
                0
            ],
            "name" : "z4",
            "pbrMetallicRoughness" : {
                "baseColorTexture" : {
                    "index" : 4,
                    "texCoord" : 0
                },
                "metallicFactor" : 0,
                "roughnessFactor" : 0.8945907354354858
            }
        },
        {
            "doubleSided" : true,
            "emissiveFactor" : [
                0,
                0,
                0
            ],
            "name" : "qiang",
            "pbrMetallicRoughness" : {
                "baseColorTexture" : {
                    "index" : 5,
                    "texCoord" : 0
                },
                "metallicFactor" : 0,
                "roughnessFactor" : 0.8945907354354858
            }
        },
        {
            "doubleSided" : true,
            "emissiveFactor" : [
                0,
                0,
                0
            ],
            "name" : "p3",
            "pbrMetallicRoughness" : {
                "baseColorTexture" : {
                    "index" : 6,
                    "texCoord" : 0
                },
                "metallicFactor" : 0,
                "roughnessFactor" : 0.8945907354354858
            }
        },
        {
            "doubleSided" : true,
            "emissiveFactor" : [
                0,
                0,
                0
            ],
            "name" : "p2",
            "pbrMetallicRoughness" : {
                "baseColorTexture" : {
                    "index" : 7,
                    "texCoord" : 0
                },
                "metallicFactor" : 0,
                "roughnessFactor" : 0.8945907354354858
            }
        }
    ],
    "meshes" : [
        {
            "name" : "zy1",
            "primitives" : [
                {
                    "attributes" : {
                        "POSITION" : 0,
                        "NORMAL" : 1,
                        "TEXCOORD_0" : 2
                    },
                    "indices" : 3,
                    "material" : 0
                },
                {
                    "attributes" : {
                        "POSITION" : 4,
                        "NORMAL" : 5,
                        "TEXCOORD_0" : 6
                    },
                    "indices" : 7,
                    "material" : 1
                },
                {
                    "attributes" : {
                        "POSITION" : 8,
                        "NORMAL" : 9,
                        "TEXCOORD_0" : 10
                    },
                    "indices" : 11,
                    "material" : 2
                },
                {
                    "attributes" : {
                        "POSITION" : 12,
                        "NORMAL" : 13,
                        "TEXCOORD_0" : 14
                    },
                    "indices" : 15,
                    "material" : 3
                },
                {
                    "attributes" : {
                        "POSITION" : 16,
                        "NORMAL" : 17,
                        "TEXCOORD_0" : 18
                    },
                    "indices" : 19,
                    "material" : 4
                },
                {
                    "attributes" : {
                        "POSITION" : 20,
                        "NORMAL" : 21,
                        "TEXCOORD_0" : 22
                    },
                    "indices" : 23,
                    "material" : 5
                },
                {
                    "attributes" : {
                        "POSITION" : 24,
                        "NORMAL" : 25,
                        "TEXCOORD_0" : 26
                    },
                    "indices" : 27,
                    "material" : 6
                },
                {
                    "attributes" : {
                        "POSITION" : 28,
                        "NORMAL" : 29,
                        "TEXCOORD_0" : 30
                    },
                    "indices" : 31,
                    "material" : 7
                }
            ]
        }
    ],
    "textures" : [
        {
            "source" : 0
        },
        {
            "source" : 1
        },
        {
            "source" : 2
        },
        {
            "source" : 3
        },
        {
            "source" : 4
        },
        {
            "source" : 5
        },
        {
            "source" : 6
        },
        {
            "source" : 7
        }
    ],
    "images" : [
        {
            "mimeType" : "image/jpeg",
            "name" : "paizi1",
            "uri" : "paizi1.jpg"
        },
        {
            "mimeType" : "image/jpeg",
            "name" : "z2",
            "uri" : "z2.jpg"
        },
        {
            "mimeType" : "image/jpeg",
            "name" : "z3",
            "uri" : "z3.jpg"
        },
        {
            "mimeType" : "image/jpeg",
            "name" : "z1",
            "uri" : "z1.jpg"
        },
        {
            "mimeType" : "image/jpeg",
            "name" : "z4",
            "uri" : "z4.jpg"
        },
        {
            "mimeType" : "image/jpeg",
            "name" : "qiang",
            "uri" : "qiang.jpg"
        },
        {
            "mimeType" : "image/jpeg",
            "name" : "paizi3",
            "uri" : "paizi3.jpg"
        },
        {
            "mimeType" : "image/jpeg",
            "name" : "paizi2",
            "uri" : "paizi2.jpg"
        }
    ],
    "accessors" : [
        {
            "bufferView" : 0,
            "componentType" : 5126,
            "count" : 1080,
            "max" : [
                -43.87779998779297,
                7.000100135803223,
                12.718199729919434
            ],
            "min" : [
                -113.05729675292969,
                -7.692699909210205,
                1.4780999422073364
            ],
            "type" : "VEC3"
        },
        {
            "bufferView" : 1,
            "componentType" : 5126,
            "count" : 1080,
            "type" : "VEC3"
        },
        {
            "bufferView" : 2,
            "componentType" : 5126,
            "count" : 1080,
            "type" : "VEC2"
        },
        {
            "bufferView" : 3,
            "componentType" : 5123,
            "count" : 1620,
            "type" : "SCALAR"
        },
        {
            "bufferView" : 4,
            "componentType" : 5126,
            "count" : 844,
            "max" : [
                -35.74440002441406,
                7.315400123596191,
                28.55660057067871
            ],
            "min" : [
                -65.32109832763672,
                -8.59280014038086,
                3.3696000576019287
            ],
            "type" : "VEC3"
        },
        {
            "bufferView" : 5,
            "componentType" : 5126,
            "count" : 844,
            "type" : "VEC3"
        },
        {
            "bufferView" : 6,
            "componentType" : 5126,
            "count" : 844,
            "type" : "VEC2"
        },
        {
            "bufferView" : 7,
            "componentType" : 5123,
            "count" : 1380,
            "type" : "SCALAR"
        },
        {
            "bufferView" : 8,
            "componentType" : 5126,
            "count" : 1266,
            "max" : [
                44.12580108642578,
                7.411900043487549,
                28.59429931640625
            ],
            "min" : [
                -35.70240020751953,
                -9.025500297546387,
                2.1863999366760254
            ],
            "type" : "VEC3"
        },
        {
            "bufferView" : 9,
            "componentType" : 5126,
            "count" : 1266,
            "type" : "VEC3"
        },
        {
            "bufferView" : 10,
            "componentType" : 5126,
            "count" : 1266,
            "type" : "VEC2"
        },
        {
            "bufferView" : 11,
            "componentType" : 5123,
            "count" : 2052,
            "type" : "SCALAR"
        },
        {
            "bufferView" : 12,
            "componentType" : 5126,
            "count" : 1092,
            "max" : [
                -63.540000915527344,
                9.12559986114502,
                28.624000549316406
            ],
            "min" : [
                -119.00160217285156,
                -9.072600364685059,
                2.47979998588562
            ],
            "type" : "VEC3"
        },
        {
            "bufferView" : 13,
            "componentType" : 5126,
            "count" : 1092,
            "type" : "VEC3"
        },
        {
            "bufferView" : 14,
            "componentType" : 5126,
            "count" : 1092,
            "type" : "VEC2"
        },
        {
            "bufferView" : 15,
            "componentType" : 5123,
            "count" : 1872,
            "type" : "SCALAR"
        },
        {
            "bufferView" : 16,
            "componentType" : 5126,
            "count" : 522,
            "max" : [
                112.32949829101562,
                9.12559986114502,
                28.54330062866211
            ],
            "min" : [
                44.19200134277344,
                -9.072600364685059,
                2.47979998588562
            ],
            "type" : "VEC3"
        },
        {
            "bufferView" : 17,
            "componentType" : 5126,
            "count" : 522,
            "type" : "VEC3"
        },
        {
            "bufferView" : 18,
            "componentType" : 5126,
            "count" : 522,
            "type" : "VEC2"
        },
        {
            "bufferView" : 19,
            "componentType" : 5123,
            "count" : 840,
            "type" : "SCALAR"
        },
        {
            "bufferView" : 20,
            "componentType" : 5126,
            "count" : 4,
            "max" : [
                149.5688934326172,
                -9.12559986114502,
                28.592500686645508
            ],
            "min" : [
                -149.5688934326172,
                -9.12559986114502,
                -28.624000549316406
            ],
            "type" : "VEC3"
        },
        {
            "bufferView" : 21,
            "componentType" : 5126,
            "count" : 4,
            "type" : "VEC3"
        },
        {
            "bufferView" : 22,
            "componentType" : 5126,
            "count" : 4,
            "type" : "VEC2"
        },
        {
            "bufferView" : 23,
            "componentType" : 5123,
            "count" : 6,
            "type" : "SCALAR"
        },
        {
            "bufferView" : 24,
            "componentType" : 5126,
            "count" : 696,
            "max" : [
                110.03209686279297,
                8.540399551391602,
                12.408499717712402
            ],
            "min" : [
                48.50899887084961,
                -6.607999801635742,
                1.7555999755859375
            ],
            "type" : "VEC3"
        },
        {
            "bufferView" : 25,
            "componentType" : 5126,
            "count" : 696,
            "type" : "VEC3"
        },
        {
            "bufferView" : 26,
            "componentType" : 5126,
            "count" : 696,
            "type" : "VEC2"
        },
        {
            "bufferView" : 27,
            "componentType" : 5123,
            "count" : 1044,
            "type" : "SCALAR"
        },
        {
            "bufferView" : 28,
            "componentType" : 5126,
            "count" : 768,
            "max" : [
                38.27299880981445,
                5.780200004577637,
                13.406499862670898
            ],
            "min" : [
                -40.21200180053711,
                -6.6691999435424805,
                1.4472999572753906
            ],
            "type" : "VEC3"
        },
        {
            "bufferView" : 29,
            "componentType" : 5126,
            "count" : 768,
            "type" : "VEC3"
        },
        {
            "bufferView" : 30,
            "componentType" : 5126,
            "count" : 768,
            "type" : "VEC2"
        },
        {
            "bufferView" : 31,
            "componentType" : 5123,
            "count" : 1152,
            "type" : "SCALAR"
        }
    ],
    "bufferViews" : [
        {
            "buffer" : 0,
            "byteLength" : 12960,
            "byteOffset" : 0
        },
        {
            "buffer" : 0,
            "byteLength" : 12960,
            "byteOffset" : 12960
        },
        {
            "buffer" : 0,
            "byteLength" : 8640,
            "byteOffset" : 25920
        },
        {
            "buffer" : 0,
            "byteLength" : 3240,
            "byteOffset" : 34560
        },
        {
            "buffer" : 0,
            "byteLength" : 10128,
            "byteOffset" : 37800
        },
        {
            "buffer" : 0,
            "byteLength" : 10128,
            "byteOffset" : 47928
        },
        {
            "buffer" : 0,
            "byteLength" : 6752,
            "byteOffset" : 58056
        },
        {
            "buffer" : 0,
            "byteLength" : 2760,
            "byteOffset" : 64808
        },
        {
            "buffer" : 0,
            "byteLength" : 15192,
            "byteOffset" : 67568
        },
        {
            "buffer" : 0,
            "byteLength" : 15192,
            "byteOffset" : 82760
        },
        {
            "buffer" : 0,
            "byteLength" : 10128,
            "byteOffset" : 97952
        },
        {
            "buffer" : 0,
            "byteLength" : 4104,
            "byteOffset" : 108080
        },
        {
            "buffer" : 0,
            "byteLength" : 13104,
            "byteOffset" : 112184
        },
        {
            "buffer" : 0,
            "byteLength" : 13104,
            "byteOffset" : 125288
        },
        {
            "buffer" : 0,
            "byteLength" : 8736,
            "byteOffset" : 138392
        },
        {
            "buffer" : 0,
            "byteLength" : 3744,
            "byteOffset" : 147128
        },
        {
            "buffer" : 0,
            "byteLength" : 6264,
            "byteOffset" : 150872
        },
        {
            "buffer" : 0,
            "byteLength" : 6264,
            "byteOffset" : 157136
        },
        {
            "buffer" : 0,
            "byteLength" : 4176,
            "byteOffset" : 163400
        },
        {
            "buffer" : 0,
            "byteLength" : 1680,
            "byteOffset" : 167576
        },
        {
            "buffer" : 0,
            "byteLength" : 48,
            "byteOffset" : 169256
        },
        {
            "buffer" : 0,
            "byteLength" : 48,
            "byteOffset" : 169304
        },
        {
            "buffer" : 0,
            "byteLength" : 32,
            "byteOffset" : 169352
        },
        {
            "buffer" : 0,
            "byteLength" : 12,
            "byteOffset" : 169384
        },
        {
            "buffer" : 0,
            "byteLength" : 8352,
            "byteOffset" : 169396
        },
        {
            "buffer" : 0,
            "byteLength" : 8352,
            "byteOffset" : 177748
        },
        {
            "buffer" : 0,
            "byteLength" : 5568,
            "byteOffset" : 186100
        },
        {
            "buffer" : 0,
            "byteLength" : 2088,
            "byteOffset" : 191668
        },
        {
            "buffer" : 0,
            "byteLength" : 9216,
            "byteOffset" : 193756
        },
        {
            "buffer" : 0,
            "byteLength" : 9216,
            "byteOffset" : 202972
        },
        {
            "buffer" : 0,
            "byteLength" : 6144,
            "byteOffset" : 212188
        },
        {
            "buffer" : 0,
            "byteLength" : 2304,
            "byteOffset" : 218332
        }
    ],
    "buffers" : [
        {
            "byteLength" : 220636,
            "uri" : "zy3.bin"
        }
    ]
}
